<svg xmlns="http://www.w3.org/2000/svg" width="153.6" height="32.96" viewBox="0 0 40640 8721" shape-rendering="geometricPrecision" text-rendering="geometricPrecision" image-rendering="optimizeQuality" fill-rule="evenodd" clip-rule="evenodd"><defs><style>.fil2{fill:#8edebe}.fil3{fill:#aea5a5}.fil4{fill:#d0bb85}.fil0{fill:#ee4a72}.fil1{fill:#ff9b5d}.fil5{fill:#fefefe;fill-rule:nonzero}</style></defs><g id="Layer_x0020_1"><g id="_412501016"><path class="fil0" d="M0 3513h1736v1736H0z"/><path class="fil1" d="M6009 1777h935v935h-935zM3472 41h1736v1736H3472zm3472 3472h1736v1736H6944z"/><path class="fil2" d="M5208 5249h1736v1736H5208z"/><path class="fil3" d="M3472 5249h1736v1736H3472z"/><path class="fil0" d="M1736 5249h1736v1736H1736z"/><path class="fil4" d="M5208 3513h1736v1736H5208z"/><path class="fil2" d="M1736 1777h1736v1182h-553v554H1736z"/><path class="fil4" d="M3472 1777h1736v1736H4025v-554h-553z"/><path class="fil2" d="M4025 3513h1183v1736H3472V4066h553z"/><path class="fil3" d="M1736 3513h1183v553h553v1183H1736z"/><path class="fil0" d="M3472 6985h1736v1736H3472zm8680-1736h1736v1736h-1736z"/><path class="fil1" d="M18161 1777h935v935h-935z"/><path class="fil2" d="M17360 5249h1736v1736h-1736z"/><path class="fil4" d="M17360 3513h1736v1736h-1736z"/><path class="fil2" d="M20832 1777h1736v1736h-1736zm3472 3472h1736v1736h-1736z"/><path class="fil0" d="M20832 5249h1736v1736h-1736z"/><path class="fil2" d="M22568 3513h1736v1736h-1736z"/><path class="fil1" d="M24304 1777h1736v1736h-1736z"/><path class="fil2" d="M27776 1777h1736v1736h-1736z"/><path class="fil0" d="M27776 5249h1736v1736h-1736z"/><path class="fil4" d="M29512 1777h1736v1182h-1084v554h-652z"/><path class="fil3" d="M29512 5249h652v553h1084v1183h-1736z"/><path class="fil2" d="M29512 3513h652v553h1084v629h-1084v554h-652z"/><path class="fil3" d="M27776 3513h1736v1736h-1736z"/><path class="fil2" d="M32984 1777h1736v1736h-1736z"/><path class="fil3" d="M34720 5249h1736v1736h-1736z"/><path class="fil0" d="M32984 5249h1736v1736h-1736z"/><path class="fil3" d="M32984 3513h1736v1736h-1736z"/><path class="fil2" d="M12152 1777h1736v1182h-553v554h-1183z"/><path class="fil4" d="M13888 1777h1736v1736h-1183v-554h-553z"/><path class="fil2" d="M14441 3513h1183v1736h-1736V4066h553z"/><path class="fil3" d="M12152 3513h1183v553h553v1183h-1736z"/><path class="fil5" d="M38113 569l-229 485h340l-106-485h-5zm-108-332l-77-138c19-15 37-25 54-31 64-22 143-33 233-33 93 0 164 26 214 79 44 46 79 111 107 193 27 83 53 201 76 354 13 78 24 136 33 175 30 110 49 180 59 210 9 31 27 80 52 147 9 19 19 46 33 81 14 34 28 67 40 97 27 65 69 151 126 259-71 49-130 84-179 106s-93 33-133 33c-50 0-91-10-124-29s-63-50-90-92c-32-57-64-134-96-232-3-9-7-21-11-36-5-14-10-29-15-46-98 41-175 61-230 61-31 0-58 0-80-2-20-1-109-4-269-7l-12 27c-46 96-89 170-130 221-40 52-86 88-138 109-53 21-118 31-197 31-45 0-77-5-97-15-19-10-28-27-28-49 0-28 45-104 138-229 32-44 57-78 73-103-88-17-132-48-132-93 0-37 35-92 106-164 33-35 64-57 93-67s79-15 151-16c67-123 110-201 128-235 19-34 42-76 72-127 29-52 63-111 100-176 37-66 87-153 150-263z"/><path id="1" class="fil5" d="M39448 1386l-5 25c0 14-1 35-5 62-3 41-8 74-14 100s-14 48-26 65-28 35-48 55c-61 56-122 84-184 84-51 0-88-19-112-56-23-37-35-96-35-178 0-65 7-146 22-242 14-96 32-182 53-258l10-33c0-4 3-15 8-31 31-114 60-198 85-253 26-55 58-99 95-132 32-26 69-39 110-39 60 0 96 36 108 108 12-10 23-22 34-35 24-30 43-49 56-59 14-10 29-14 47-14 72 0 108 71 108 213 0 78-9 153-26 226-16 73-37 133-63 178-25 46-51 70-76 70-27 0-41-53-41-157 0-56-3-99-10-130-6-32-15-56-29-74-25 47-41 154-49 322-6 97-10 158-13 183z"/><path id="2" class="fil5" d="M40095 555l6-15c55-156 102-266 143-330 19-30 46-57 80-80 64-41 125-62 182-62 33 0 58 8 76 23s27 37 27 65c0 19-13 59-38 119-43 99-74 193-95 280 14 1 28 4 41 7 50 8 83 16 99 26s24 27 24 52c0 43-11 84-34 122-22 37-52 64-89 82-27 12-72 21-134 25-11 33-23 77-35 134-8 50-16 120-25 208-5 33-8 64-8 92 0 132 64 198 192 198h12c15 0 22 3 22 8 0 13-14 36-43 67-28 32-60 60-94 84-37 26-77 45-120 60-44 15-84 23-119 23-88 0-160-29-214-89-55-59-83-138-83-235 0-42 8-97 22-165 15-68 38-159 69-272 5-20 10-41 16-64 6-22 9-35 10-39-34-1-58-8-72-22-14-13-22-35-22-65 0-53 21-103 62-149 40-47 88-77 142-88z"/></g></g></svg>